<svg xmlns="http://www.w3.org/2000/svg" width="131.17" height="44.4" viewBox="0 0 131.17 44.4"><defs><style>.cls-1{fill:#231815;}.cls-2{isolation:isolate;}</style></defs><title>アセット 19</title><g id="レイヤー_2" data-name="レイヤー 2"><g id="レイヤー_1-2" data-name="レイヤー 1"><path class="cls-1" d="M21.8,26c-.1-.2-.2-1-.3-1.2l-.3-1.5c-.2-1-.3-2.1-.4-3.1s-.1-2.2-.2-3.3a18.23,18.23,0,0,1,.2-3.3c.1-1.1.3-2.1.4-3.1L21.5,9c.1-.2.1-.5.2-.7s.1-.5.2-.7c.1-.5.3-.9.4-1.3s.3-.8.4-1.2.3-.8.4-1.1.3-.7.4-1,.3-.6.4-.9a4.38,4.38,0,0,1,.4-.7c.4-.9.6-1.4.6-1.4s-.3.5-.8,1.3a4.38,4.38,0,0,0-.4.7c-.1.3-.3.5-.4.8l-.5,1a10.9,10.9,0,0,0-.5,1.1c-.2.4-.3.8-.5,1.2a6.84,6.84,0,0,1-.5,1.3,1.94,1.94,0,0,0-.2.7c-.1.2-.1.5-.2.7-.1.5-.3,1-.4,1.5a31.74,31.74,0,0,0-.5,3.2,18.38,18.38,0,0,0-.2,3.4c0,1.1.1,2.3.2,3.4a31.74,31.74,0,0,0,.5,3.2c.1.5.3,1,.4,1.5.1.2.3,1,.4,1.2"/><path class="cls-1" d="M24.7,32.4c.1-.2.7-.5.8-.7s.7-.6.8-.9.28-.66.4-1,.3-.7.4-1.1.3-.8.4-1.2.3-.9.4-1.3c.1-.2.1-.5.2-.7s.1-.5.2-.7l.3-1.5c.2-1,.3-2.1.4-3.1s.1-2.2.2-3.3a18.23,18.23,0,0,0-.2-3.3c-.1-1.1-.3-2.1-.4-3.1L28.3,9c-.1-.2-.1-.5-.2-.7a1.42,1.42,0,0,0-.2-.7c-.1-.5-.3-.9-.4-1.3s-.3-.8-.4-1.2-.3-.8-.4-1.1l-.4-1c-.1-.3-.3-.6-.4-.9a4.38,4.38,0,0,0-.4-.7C25.1.5,24.9,0,24.9,0s.3.5.8,1.3a4.38,4.38,0,0,1,.4.7c.1.3.3.5.4.8a9.33,9.33,0,0,0,.5,1,10.9,10.9,0,0,1,.5,1.1c.2.4.3.8.5,1.2a6.84,6.84,0,0,0,.5,1.3,1.94,1.94,0,0,1,.2.7,1.94,1.94,0,0,0,.2.7c.1.5.3,1,.4,1.5a31.74,31.74,0,0,1,.5,3.2,18.38,18.38,0,0,1,.2,3.4c0,1.1-.1,2.3-.2,3.4a31.74,31.74,0,0,1-.5,3.2c-.1.5-.3,1-.4,1.5-.1.2-.1.5-.2.7a1.94,1.94,0,0,0-.2.7c-.2.5-.3.9-.5,1.3s-.3.8-.5,1.2A10.9,10.9,0,0,1,27,30c-.2.3-.8.7-.9,1a6,6,0,0,0-.4.8c-.1.2-.7.5-.9.7"/><path class="cls-1" d="M26,31.6a12,12,0,0,0-.9,1.1c-.2.2-.3.4-.5.5l-.5.5L23,34.8a17.44,17.44,0,0,1-2.6,2c-.9.7-1.9,1.2-2.8,1.8a16.81,16.81,0,0,1-3,1.5,20,20,0,0,1-3.1,1.1c-.5.1-1,.3-1.5.4-.2.1-.5.1-.7.2a3.91,3.91,0,0,1-.9.2L7,42.3a5.66,5.66,0,0,1-1.3.1c-.4,0-.8.1-1.2.1H1.6c-1-.1-1.5-.1-1.5-.1s.6,0,1.5-.1h.8c.3,0,.6-.1.9-.1s.7-.1,1.1-.1a4.86,4.86,0,0,0,1.2-.2c.4-.1.8-.1,1.3-.2l1.4-.3c.2-.1.5-.1.7-.2s.5-.1.7-.2a8.74,8.74,0,0,1,1.5-.4c1-.4,2-.7,3-1.2a25.64,25.64,0,0,0,2.9-1.5c.9-.6,1.9-1.1,2.8-1.8s1.7-1.3,2.5-1.9l1.1-1c.2-.2.4-.3.6-.5l.5-.5,1-1"/><path class="cls-1" d="M26.4,26.1c-.3,0-.7.1-1.1.1a4.86,4.86,0,0,0-1.2.2c-.4.1-.8.1-1.3.2l-1.4.3-.7.2c-.2.1-.5.1-.7.2-.5.1-1,.3-1.5.4-1,.4-2,.7-3,1.2a25.64,25.64,0,0,0-2.9,1.5c-.9.6-1.9,1.1-2.8,1.8s-1.7,1.3-2.5,1.9a10.44,10.44,0,0,0-1.1,1c-.2.2-.4.3-.6.5s-.3.4-.4.5l-1,1c-.3.3-.6.7-.9,1a5.57,5.57,0,0,0-.7.9,5.35,5.35,0,0,1-.7.8,6.68,6.68,0,0,0-.6.8c-.2.2-.3.5-.5.7-.5.8-.8,1.2-.8,1.2a14.06,14.06,0,0,0,.7-1.4,3,3,0,0,0,.4-.6,8.24,8.24,0,0,1,.5-.8l.6-.9a8.55,8.55,0,0,0,.7-1,4,4,0,0,1,.8-1,12,12,0,0,0,.9-1.1c.2-.2.3-.4.5-.5l.5-.5,1.1-1.1a17.44,17.44,0,0,1,2.6-2c.9-.7,1.9-1.2,2.8-1.8a16.81,16.81,0,0,1,3-1.5,20,20,0,0,1,3.1-1.1c.5-.1,1-.3,1.5-.4.2-.1.5-.1.7-.2a1.7,1.7,0,0,1,.7-.1l1.4-.3a6.28,6.28,0,0,1,1.3-.1"/><path class="cls-1" d="M24.9,32.9l.8.8,1.1,1.1a17.44,17.44,0,0,0,2.6,2c.9.7,1.9,1.2,2.8,1.8a16.81,16.81,0,0,0,3,1.5,20,20,0,0,0,3.1,1.1c.5.1,1,.3,1.5.4.2.1.5.1.7.2a1.66,1.66,0,0,0,.7.1l1.4.3a6.28,6.28,0,0,0,1.3.1c.4,0,.8.1,1.2.1H48c1-.1,1.5-.1,1.5-.1s-.6,0-1.5-.1h-.8c-.3,0-.6-.1-.9-.1s-.7-.1-1.1-.1a4.86,4.86,0,0,1-1.2-.2c-.4-.1-.8-.1-1.3-.2l-1.4-.3c-.2-.1-.5-.1-.7-.2s-.5-.1-.7-.2a8.74,8.74,0,0,0-1.5-.4c-1-.4-2-.7-3-1.2a25.64,25.64,0,0,1-2.9-1.5c-.9-.6-1.9-1.1-2.8-1.8s-1.7-1.3-2.5-1.9l-1.1-1a6.86,6.86,0,0,0-.9-.8"/><path class="cls-1" d="M23.4,26.1c.3,0,.7.1,1.1.1a4.86,4.86,0,0,1,1.2.2c.4.1.8.1,1.3.2l1.4.3.7.2c.2.1.5.1.7.2.5.1,1,.3,1.5.4,1,.4,2,.7,3,1.2a25.64,25.64,0,0,1,2.9,1.5c.9.6,1.9,1.1,2.8,1.8s1.7,1.3,2.5,1.9a10.44,10.44,0,0,1,1.1,1l.6.5.5.5,1,1c.3.3.6.7.9,1s.5.6.8.9a5.35,5.35,0,0,0,.7.8c.2.3.4.5.6.8a4.23,4.23,0,0,0,.5.7c.28.45.58.88.9,1.3a14.06,14.06,0,0,1-.7-1.4,2.44,2.44,0,0,0-.4-.7l-.5-.8-.6-.9a8.55,8.55,0,0,1-.7-1c-.3-.3-.5-.7-.8-1a12,12,0,0,1-.9-1.1c-.2-.2-.3-.4-.5-.5l-.5-.5-1.1-1.1a17.44,17.44,0,0,0-2.6-2c-.9-.7-1.9-1.2-2.8-1.8a16.81,16.81,0,0,0-3-1.5,20,20,0,0,0-3.1-1.1c-.5-.1-1-.3-1.5-.4-.2-.1-.5-.1-.7-.2a1.7,1.7,0,0,0-.7-.1l-1.4-.3a6.28,6.28,0,0,0-1.3-.1c-.4,0-.8.3-1.2.3"/><path class="cls-1" d="M28,26.3a13.42,13.42,0,0,0-6.3,0,2.29,2.29,0,0,0,.3.5,13.69,13.69,0,0,1,5.7,0C27.8,26.6,27.9,26.5,28,26.3Z"/><path class="cls-1" d="M21.1,26.2A18.8,18.8,0,0,0,24.9,33c.1-.2.3-.3.4-.5A19.42,19.42,0,0,1,21.8,26"/><path class="cls-1" d="M28.5,26.6a15.06,15.06,0,0,1-3.3,6l-.3-.6a13.53,13.53,0,0,0,3-5.5"/><path class="cls-1" d="M27,28.5a2,2,0,1,1-2-2,1.94,1.94,0,0,1,2,1.88Z"/><path d="M13.1,17.2l.2-.2a2.84,2.84,0,0,1,.6-.6l.4-.4.5-.5.6-.5c.2-.2.5-.3.7-.5a15.83,15.83,0,0,1,1.8-1l.2-.1.1-.1.1-.1.5-.2c.2-.1.4-.1.5-.2s.4-.1.6-.2l.6-.2a1.23,1.23,0,0,1,.6-.1l.3-.1a.37.37,0,0,0,.3-.1c.2,0,.4-.1.6-.1a20.89,20.89,0,0,1,2.5-.2H26a1.23,1.23,0,0,1,.6.1l.6.1c.2,0,.4.1.6.1s.4.1.6.1l.6.1c.2.1.4.1.6.2l.3.1.3.1c.2.1.4.1.5.2l.5.2c.1,0,.2.1.3.1l.2.1.5.2.5.2.2.1c.1,0,.1.1.2.1l.4.2a.76.76,0,0,0,.4.2l.4.2.6.5c.2.2.4.3.6.5l.6.6.2.2a2.84,2.84,0,0,1,.6.6l.2.2-.2-.2c-.2-.1-.4-.3-.7-.5l-.2-.2c-.1-.1-.2-.1-.3-.2l-.6-.4-.7-.4a6,6,0,0,0-.8-.4l-.4-.2c-.1,0-.1-.1-.2-.1l-.2-.1-.5-.2-.3-.3-.2-.1c-.1,0-.2-.1-.3-.1l-.5-.2-.5-.2-.3-.1-.3-.1a20,20,0,0,0-2.3-.5l-.6-.1H25.1a19.42,19.42,0,0,0-2.4.2,16.24,16.24,0,0,0-2.3.5,17.23,17.23,0,0,0-2.1.7l-1.8.9c-.3.2-.5.3-.8.5l-.7.4-.6.4c-.2.1-.3.3-.5.4a3.62,3.62,0,0,0-.6.5Z"/><path d="M21,44.3l-.3-.1c-.2-.1-.5-.1-.8-.2a4.17,4.17,0,0,1-.6-.2l-.7-.3-.7-.3c-.3-.1-.5-.3-.8-.4a10.51,10.51,0,0,1-1.7-1.1l-.2-.2-.2-.1-.1-.1-.4-.3c-.2-.1-.3-.3-.4-.4l-.4-.4-.4-.4-.4-.4-.2-.2c-.1-.1-.1-.2-.2-.2-.1-.2-.3-.3-.4-.5-.5-.7-1-1.4-1.4-2.1v-.1h0l-.2-.3-.1-.3-.1-.3c0-.1-.1-.2-.1-.3l-.3-.6L9.6,34c-.1-.2-.1-.4-.2-.6s-.1-.4-.2-.6-.1-.4-.2-.6,0-.4-.1-.6a.37.37,0,0,0-.1-.3V31c0-.2-.1-.4-.1-.6a1.23,1.23,0,0,0-.1-.6V26.3c0-.3.1-.6.1-.8s.1-.5.1-.7a.37.37,0,0,1,.1-.3.37.37,0,0,1,.1-.3,4.46,4.46,0,0,0,.2-.8l.1-.3a.76.76,0,0,1-.1.3,3.24,3.24,0,0,1-.2.8v1.4a2.18,2.18,0,0,1-.1.8v2.3a.87.87,0,0,0,.1.5v.6a4,4,0,0,0,.1.5c0,.1.1.4.1.6a.37.37,0,0,0,.1.3.37.37,0,0,0,.1.3,20.33,20.33,0,0,0,.7,2.3l.2.6a1.42,1.42,0,0,1,.2.6c0,.1.1.2.1.3l.1.3.1.3.1.1h0v.1A17.9,17.9,0,0,0,13.8,40c.5.5,1.1,1,1.7,1.5s1.1.8,1.6,1.2c.3.2.5.3.8.5l.7.4.6.3a1.42,1.42,0,0,0,.6.2,6,6,0,0,1,.8.3Z"/><path d="M28.9,44.3l.3-.1a6,6,0,0,1,.8-.3c.2-.1.4-.1.6-.2l.6-.3.7-.4a8.24,8.24,0,0,0,.8-.5,9.83,9.83,0,0,0,1.6-1.2c.6-.5,1.1-1,1.7-1.5A11.74,11.74,0,0,0,37.5,38a14.13,14.13,0,0,0,1.3-2.1v-.1h0l.1-.1.1-.3.1-.3c0-.1.1-.2.1-.3a1.42,1.42,0,0,0,.2-.6l.2-.6a15.62,15.62,0,0,0,.7-2.3.37.37,0,0,1,.1-.3.37.37,0,0,1,.1-.3c0-.2.1-.4.1-.6a4,4,0,0,1,.1-.5V29a.87.87,0,0,1,.1-.5V26.2a2.18,2.18,0,0,0-.1-.8c0-.3-.1-.5-.1-.7v-.6a4.46,4.46,0,0,0-.2-.8l-.1-.3.1.3c.1.2.1.5.2.8a.37.37,0,0,0,.1.3.37.37,0,0,1,.1.3c0,.2.1.5.1.7s.1.5.1.8v3.5a1.23,1.23,0,0,1-.1.6c0,.2-.1.4-.1.6v.3l.2.4c0,.2-.1.4-.1.6a1.42,1.42,0,0,1-.2.6c-.1.2-.1.4-.2.6s-.1.4-.2.6l-.2.6-.3.6c0,.1-.1.2-.1.3l-.1.3-.2.2-.1.1h0v.1c-.4.7-.9,1.4-1.4,2.1-.1.2-.3.3-.4.5s-.1.2-.2.2l-.2.2c-.1.2-.3.3-.4.4l-.4.4-.4.4-.4.4-.5.5-.1.1-.1.1-.2.2a10.51,10.51,0,0,1-1.7,1.1c-.3.1-.5.3-.8.4l-.7.3-.7.3c-.2.1-.4.1-.6.2a3.24,3.24,0,0,1-.8.2Z"/><g class="cls-2"><path d="M64.51,16.52H57.62v-.83H72.35v.83H65.46V35.13h-.95Z"/></g><g class="cls-2"><path d="M74.48,21.05h.76l.12,3.54h.06a10,10,0,0,1,2.86-2.79,7,7,0,0,1,3.88-1.1,8.88,8.88,0,0,1,1.42.12,4.51,4.51,0,0,1,1.41.47l-.24.82a11.11,11.11,0,0,0-1.34-.41,6.73,6.73,0,0,0-4.85.91,10.57,10.57,0,0,0-3.2,3.51v9h-.88Z"/></g><g class="cls-2"><path d="M87.22,21.05h8.13V35.13h-.88V21.88H87.22Zm7.37-3.59a1.17,1.17,0,0,1-.84-.32,1.4,1.4,0,0,1,0-1.83,1.13,1.13,0,0,1,.84-.32,1.16,1.16,0,0,1,.84.32,1.4,1.4,0,0,1,0,1.83A1.2,1.2,0,0,1,94.59,17.46Z"/></g><g class="cls-2"><path d="M102,31.68a3.47,3.47,0,0,1,.63-2.06,5,5,0,0,1,2-1.51A14.31,14.31,0,0,1,108,27.05a45.63,45.63,0,0,1,5-.7,7.75,7.75,0,0,0-.21-1.79A4,4,0,0,0,112.1,23a3.44,3.44,0,0,0-1.34-1.07,4.77,4.77,0,0,0-2.12-.42,6.9,6.9,0,0,0-1.65.2,8.36,8.36,0,0,0-1.51.5,9.42,9.42,0,0,0-1.31.66,10.32,10.32,0,0,0-1,.65l-.48-.71a8.91,8.91,0,0,1,1-.66,10.29,10.29,0,0,1,1.41-.7,12.87,12.87,0,0,1,1.72-.54,7.9,7.9,0,0,1,1.87-.22,6,6,0,0,1,2.4.43,4.28,4.28,0,0,1,1.61,1.16,4.75,4.75,0,0,1,.9,1.69,7.41,7.41,0,0,1,.27,2v9.13h-.76L113,33h-.06a15.89,15.89,0,0,1-1.34,1,14.17,14.17,0,0,1-1.48.81,10.25,10.25,0,0,1-1.58.56,6.89,6.89,0,0,1-1.61.2,7.37,7.37,0,0,1-1.82-.22,4.79,4.79,0,0,1-1.58-.68,3.58,3.58,0,0,1-1.12-1.17A3.38,3.38,0,0,1,102,31.68Zm.94,0a2.64,2.64,0,0,0,.35,1.4,2.76,2.76,0,0,0,.93.93,4.17,4.17,0,0,0,1.3.52,7.21,7.21,0,0,0,1.48.16q2.81,0,6-2.71V27.12a46.93,46.93,0,0,0-4.78.66,14.24,14.24,0,0,0-3.11,1A4.08,4.08,0,0,0,103.43,30,2.83,2.83,0,0,0,102.93,31.65Z"/></g><g class="cls-2"><path d="M118.8,28.12a8.16,8.16,0,0,1,.55-3.08,7.16,7.16,0,0,1,1.47-2.34A6.39,6.39,0,0,1,123,21.21a6.52,6.52,0,0,1,2.55-.51,5.74,5.74,0,0,1,2.51.54,11.79,11.79,0,0,1,2.32,1.52l-.06-2.94v-6h.88V35.13h-.76L130.29,33h-.06A9.76,9.76,0,0,1,128,34.72a5.8,5.8,0,0,1-2.91.76,6.52,6.52,0,0,1-2.53-.48,5.56,5.56,0,0,1-2-1.42,6.44,6.44,0,0,1-1.28-2.29A9.89,9.89,0,0,1,118.8,28.12Zm.94,0a9.26,9.26,0,0,0,.37,2.67,6.37,6.37,0,0,0,1.06,2.06,4.75,4.75,0,0,0,1.68,1.34,5.23,5.23,0,0,0,2.25.47,5.31,5.31,0,0,0,2.62-.72,11.11,11.11,0,0,0,2.57-2V23.76A8.82,8.82,0,0,0,127.81,22a6,6,0,0,0-2.35-.5,5,5,0,0,0-2.24.52,5.73,5.73,0,0,0-1.81,1.41,6.56,6.56,0,0,0-1.22,2.11A7.26,7.26,0,0,0,119.74,28.12Z"/></g></g></g></svg>